<svg version="1.2" xmlns="http://www.w3.org/2000/svg" viewBox="0 0 64 54" width="64" height="54">
	<style>
		.s0 { fill: #ff0000 } 
		.s1 { fill: #ffffff } 
	</style>
	<path class="s0" d="m62.6 12.6q-0.27-1.02-0.8-1.93-0.53-0.92-1.28-1.66-0.74-0.75-1.66-1.28-0.91-0.53-1.93-0.8c-4.97-1.36-24.97-1.36-24.97-1.36 0 0-20.01 0.04-24.98 1.4q-1.01 0.27-1.93 0.8-0.91 0.53-1.66 1.28-0.74 0.74-1.27 1.66-0.53 0.91-0.81 1.93c-1.31 4.97-1.31 15.36-1.31 15.36 0 0 0 10.39 1.36 15.4q0.27 1.02 0.8 1.93 0.53 0.92 1.28 1.66 0.74 0.75 1.65 1.28 0.92 0.53 1.93 0.8c4.97 1.36 24.98 1.36 24.98 1.36 0 0 20 0 24.98-1.36q1.01-0.27 1.93-0.8 0.91-0.53 1.66-1.28 0.74-0.74 1.27-1.65 0.53-0.92 0.8-1.93c1.36-4.98 1.36-15.41 1.36-15.41 0 0-0.04-10.39-1.4-15.4z"/>
	<path class="s1" d="m25.59 37.61l16.6-9.61-16.6-9.61z"/>
</svg>